<?xml version="1.0" encoding="UTF-8"?>
<svg width="121px" height="48px" viewBox="0 0 121 48" version="1.1" xmlns="http://www.w3.org/2000/svg" xmlns:xlink="http://www.w3.org/1999/xlink">
    <!-- Generator: Sketch 55.2 (78181) - https://sketchapp.com -->
    <title>logo_modération_FR</title>
    <desc>Created with Sketch.</desc>
    <g id="900-Panier" stroke="none" stroke-width="1" fill="none" fill-rule="evenodd">
        <g id="950_Checkout_Livraison-domicile---pas-d'adresse" transform="translate(-96.000000, -1584.000000)">
            <g id="logo_modération_FR" transform="translate(96.000000, 1584.000000)">
                <g id="Group-47">
                    <path d="M6.75467784,3.88290411 C6.8982427,2.55271233 7.89894541,2.03523288 9.64232649,2.03523288 C10.8307427,2.03523288 12.3187157,2.30909589 12.3187157,3.54723288 L12.3187157,6.41013699 C12.3187157,6.72542466 12.4737265,6.86679452 12.818413,6.86679452 C12.9403941,6.86679452 13.09704,6.84772603 13.2065941,6.82635616 L13.2065941,7.53780822 C12.9403941,7.57824658 12.6071535,7.59863014 12.3409535,7.59863014 C11.7859886,7.59863014 11.4200454,7.45627397 11.3412319,6.85758904 C10.8971292,7.40531507 9.80812919,7.71994521 8.86531027,7.71994521 C6.93258054,7.71994521 6.49926973,6.80728767 6.49926973,6.11654795 C6.49926973,5.14142466 7.13272108,4.6449863 8.99775622,4.46087671 L10.2646589,4.33890411 C10.8860103,4.27906849 11.2741914,4.17813699 11.2741914,3.70109589 C11.2741914,2.96926027 10.4968481,2.82657534 9.59785081,2.82657534 C8.64260486,2.82657534 7.83125081,3.0609863 7.79822108,3.88290411 L6.75467784,3.88290411 Z M11.2741914,4.75512329 C11.1083886,4.92805479 10.8075238,4.99972603 10.1861724,5.07041096 L8.93136973,5.21309589 C8.06474811,5.31435616 7.61018054,5.52739726 7.61018054,6.08531507 C7.61018054,6.58273973 8.15402649,6.92761644 8.96472649,6.92761644 C10.2205103,6.92761644 11.2741914,6.31906849 11.2741914,5.43567123 L11.2741914,4.75512329 Z" id="Fill-2" fill="#999999"></path>
                    <path d="M26.5115578,4.15693151 C26.5115578,3.18147945 25.8349389,2.88821918 25.1131903,2.88821918 C24.1016957,2.88821918 23.2017173,3.32482192 23.2017173,4.31967123 L23.2017173,7.5369863 L22.0917876,7.5369863 L22.0917876,4.15693151 C22.0917876,3.18147945 21.4151686,2.88821918 20.693093,2.88821918 C19.6815984,2.88821918 18.781947,3.42608219 18.781947,4.47123288 L18.781947,7.5369863 L17.6707092,7.5369863 L17.6707092,2.21819178 L18.781947,2.21819178 L18.781947,3.01972603 L18.8048389,3.01972603 C19.3267741,2.27967123 20.2476822,2.03506849 21.0812741,2.03506849 C21.8363795,2.03506849 22.5914849,2.31912329 23.0578254,3.01972603 C23.5905524,2.41117808 24.3018362,2.03506849 25.412747,2.03506849 C26.0007416,2.03506849 27.6224686,2.28887671 27.6224686,3.91331507 L27.6224686,7.5369863 L26.5115578,7.5369863 L26.5115578,4.15693151 Z" id="Fill-4" fill="#999999"></path>
                    <path d="M31.9550862,2.0352 C34.2204024,2.0352 35.3303322,3.34500822 35.3303322,4.87772055 C35.3303322,6.41109041 34.2204024,7.71991233 31.9550862,7.71991233 C29.6887889,7.71991233 28.5788592,6.41109041 28.5788592,4.87772055 C28.5788592,3.34500822 29.6887889,2.0352 31.9550862,2.0352 M31.9550862,2.88835068 C30.3444781,2.88835068 29.7551754,3.91311781 29.7551754,4.87772055 C29.7551754,5.84199452 30.3444781,6.86676164 31.9550862,6.86676164 C33.5647132,6.86676164 34.1540159,5.84199452 34.1540159,4.87772055 C34.1540159,3.91311781 33.5647132,2.88835068 31.9550862,2.88835068" id="Fill-6" fill="#999999"></path>
                    <path d="M41.4032568,6.85673425 L41.3813459,6.85673425 C40.9486892,7.41465205 40.0258189,7.72073425 39.1709703,7.72073425 C37.4154892,7.72073425 36.0050216,6.69498082 36.0050216,4.90780274 C36.0050216,3.12193973 37.4154892,2.09585753 39.1709703,2.09585753 C40.0369378,2.09585753 40.9365892,2.38089863 41.3813459,2.9592 L41.4032568,2.9592 L41.4032568,0.228789041 L42.5141676,0.228789041 L42.5141676,7.53695342 L41.4032568,7.53695342 L41.4032568,6.85673425 Z M39.3161703,6.86791233 C40.8260541,6.86791233 41.4706243,5.91350137 41.4706243,4.90780274 C41.4706243,3.69004932 40.6147946,2.94900822 39.3161703,2.94900822 C38.0280108,2.94900822 37.183627,3.69004932 37.183627,4.90780274 C37.183627,5.91350137 37.8167514,6.86791233 39.3161703,6.86791233 L39.3161703,6.86791233 Z" id="Fill-8" fill="#999999"></path>
                    <g id="Group-12" transform="translate(43.167568, 0.000000)"></g>
                    <path d="M44.6558022,5.18192877 C44.7444265,6.27869589 45.8111886,6.86686027 46.7994643,6.86686027 C47.4329157,6.86686027 48.2985562,6.67486027 48.6765995,5.9236274 L49.8542238,5.9236274 C49.2989319,7.20253151 47.9989995,7.72001096 46.855713,7.72001096 C44.5894157,7.72001096 43.4794859,6.41086027 43.4794859,4.87749041 C43.4794859,3.34510685 44.5894157,2.03529863 46.855713,2.03529863 C48.3881616,2.03529863 50.0089076,2.84669589 50.0089076,5.04943562 L50.0089076,5.18192877 L44.6558022,5.18192877 Z M48.8322643,4.39025753 C48.6654805,3.42598356 47.8443157,2.88812055 46.7994643,2.88812055 C45.77914,2.88812055 44.8559427,3.43617534 44.6891589,4.39025753 L48.8322643,4.39025753 Z M47.0548724,0.116613699 L48.4434292,0.116613699 L46.9884859,1.53787397 L46.0996265,1.53787397 L47.0548724,0.116613699 Z" id="Fill-10" fill="#999999"></path>
                    <path d="M50.9679797,2.21806027 L52.0788905,2.21806027 L52.0788905,3.19252603 L52.1001473,3.19252603 C52.6220824,2.34956712 53.36705,2.03526575 54.0999176,2.03526575 C54.3775635,2.03526575 54.5211284,2.04545753 54.7323878,2.0957589 L54.7323878,3.19252603 C54.4550689,3.13203288 54.2438095,3.09060822 53.9442527,3.09060822 C52.8441338,3.09060822 52.0788905,3.6797589 52.0788905,4.83701918 L52.0788905,7.53685479 L50.9679797,7.53685479 L50.9679797,2.21806027 Z" id="Fill-13" fill="#999999"></path>
                    <path d="M55.277313,3.88290411 C55.4221859,2.55271233 56.4215805,2.03523288 58.1659427,2.03523288 C59.3533778,2.03523288 60.8413508,2.30909589 60.8413508,3.54723288 L60.8413508,6.41013699 C60.8413508,6.72542466 60.9973427,6.86679452 61.3420292,6.86679452 C61.4646643,6.86679452 61.6186941,6.84772603 61.7302103,6.82635616 L61.7302103,7.53780822 C61.4646643,7.57824658 61.1307697,7.59863014 60.8635886,7.59863014 C60.3096049,7.59863014 59.9426805,7.45627397 59.8641941,6.85758904 C59.4207454,7.40531507 58.3317454,7.71994521 57.3885995,7.71994521 C55.4552157,7.71994521 55.0219049,6.80728767 55.0219049,6.11654795 C55.0219049,5.14142466 55.6553562,4.6449863 57.5213724,4.46087671 L58.7872941,4.33890411 C59.4096265,4.27906849 59.7978076,4.17813699 59.7978076,3.70109589 C59.7978076,2.96926027 59.0194832,2.82657534 58.1217941,2.82657534 C57.165567,2.82657534 56.354213,3.0609863 56.3218373,3.88290411 L55.277313,3.88290411 Z M59.7978076,4.75512329 C59.6316778,4.92805479 59.33114,4.99972603 58.7088076,5.07041096 L57.4540049,5.21309589 C56.5883643,5.31435616 56.1331427,5.52739726 56.1331427,6.08531507 C56.1331427,6.58273973 56.6769886,6.92761644 57.4883427,6.92761644 C58.7431454,6.92761644 59.7978076,6.31906849 59.7978076,5.43567123 L59.7978076,4.75512329 Z" id="Fill-15" fill="#999999"></path>
                    <path d="M62.7388924,0.583693151 L63.8494762,0.583693151 L63.8494762,2.21799452 L65.5156789,2.21799452 L65.5156789,3.00933699 L63.8494762,3.00933699 L63.8494762,6.28878904 C63.8494762,6.7152 64.1827168,6.86774795 64.7488005,6.86774795 C65.0038816,6.86774795 65.2602708,6.83651507 65.5156789,6.79607671 L65.5156789,7.6492274 C65.1376357,7.70972055 64.7265627,7.71991233 64.2716681,7.71991233 C63.1820141,7.71991233 62.7388924,7.23267945 62.7388924,6.46139178 L62.7388924,3.00933699 L61.5393573,3.00933699 L61.5393573,2.21799452 L62.7388924,2.21799452 L62.7388924,0.583693151 Z" id="Fill-17" fill="#999999"></path>
                    <path d="M66.2013892,1.3449863 L67.3123,1.3449863 L67.3123,0.228821918 L66.2013892,0.228821918 L66.2013892,1.3449863 Z M66.2013892,7.5369863 L67.3123,7.5369863 L67.3123,2.21819178 L66.2013892,2.21819178 L66.2013892,7.5369863 Z" id="Fill-19" fill="#999999"></path>
                    <path d="M71.6487765,2.0352 C73.9154008,2.0352 75.0253305,3.34500822 75.0253305,4.87772055 C75.0253305,6.41109041 73.9154008,7.71991233 71.6487765,7.71991233 C69.3828062,7.71991233 68.2725495,6.41109041 68.2725495,4.87772055 C68.2725495,3.34500822 69.3828062,2.0352 71.6487765,2.0352 M71.6487765,2.88835068 C70.0381684,2.88835068 69.4501738,3.91311781 69.4501738,4.87772055 C69.4501738,5.84199452 70.0381684,6.86676164 71.6487765,6.86676164 C73.2587305,6.86676164 73.8480332,5.84199452 73.8480332,4.87772055 C73.8480332,3.91311781 73.2587305,2.88835068 71.6487765,2.88835068" id="Fill-21" fill="#999999"></path>
                    <path d="M75.989537,2.21806027 L77.1001208,2.21806027 L77.1001208,3.02058082 L77.1226857,3.02058082 C77.6446208,2.27888219 78.56651,2.03526575 79.4001019,2.03526575 C80.7984695,2.03526575 81.8429938,2.58299178 81.8429938,3.91318356 L81.8429938,7.53685479 L80.732083,7.53685479 L80.732083,4.11636164 C80.732083,3.33521096 80.1980478,2.88743014 79.0106127,2.88743014 C78.0000992,2.88743014 77.1001208,3.42595068 77.1001208,4.47110137 L77.1001208,7.53685479 L75.989537,7.53685479 L75.989537,2.21806027 Z" id="Fill-22" fill="#999999"></path>
                    <path d="M86.8954632,3.88290411 C87.0390281,2.55271233 88.0397308,2.03523288 89.7831119,2.03523288 C90.9715281,2.03523288 92.4595011,2.30909589 92.4595011,3.54723288 L92.4595011,6.41013699 C92.4595011,6.72542466 92.6145119,6.86679452 92.9595254,6.86679452 C93.0821605,6.86679452 93.2371714,6.84772603 93.3473795,6.82635616 L93.3473795,7.53780822 C93.0821605,7.57824658 92.7479389,7.59863014 92.4817389,7.59863014 C91.9267741,7.59863014 91.5608308,7.45627397 91.4820173,6.85758904 C91.0388957,7.40531507 89.9502227,7.71994521 89.0057686,7.71994521 C87.0733659,7.71994521 86.6403822,6.80728767 86.6403822,6.11654795 C86.6403822,5.14142466 87.2735065,4.6449863 89.1385416,4.46087671 L90.4054443,4.33890411 C91.0267957,4.27906849 91.4146497,4.17813699 91.4146497,3.70109589 C91.4146497,2.96926027 90.6376335,2.82657534 89.7389632,2.82657534 C88.7833903,2.82657534 87.9723632,3.0609863 87.9390065,3.88290411 L86.8954632,3.88290411 Z M91.4146497,4.75512329 C91.2501551,4.92805479 90.9483092,4.99972603 90.3269578,5.07041096 L89.0721551,5.21309589 C88.2065146,5.31435616 87.7509659,5.52739726 87.7509659,6.08531507 C87.7509659,6.58273973 88.2951389,6.92761644 89.106493,6.92761644 C90.3612957,6.92761644 91.4146497,6.31906849 91.4146497,5.43567123 L91.4146497,4.75512329 Z" id="Fill-23" fill="#999999"></path>
                    <path d="M97.8125411,0.227934247 L98.9234519,0.227934247 L98.9234519,3.01982466 L98.9450357,3.01982466 C99.3901195,2.38004384 100.289771,2.09697534 101.155738,2.09697534 C102.910238,2.09697534 104.320706,3.12075616 104.320706,4.90793425 C104.320706,6.69379726 102.910238,7.71987945 101.155738,7.71987945 C100.299909,7.71987945 99.3780195,7.41576986 98.9450357,6.85686575 L98.9234519,6.85686575 L98.9234519,7.53675616 L97.8125411,7.53675616 L97.8125411,0.227934247 Z M101.010865,2.94782466 C99.7119141,2.94782466 98.8560843,3.68985205 98.8560843,4.90793425 C98.8560843,5.91264658 99.5006546,6.86672877 101.010865,6.86672877 C102.509957,6.86672877 103.143736,5.91264658 103.143736,4.90793425 C103.143736,3.68985205 102.300006,2.94782466 101.010865,2.94782466 L101.010865,2.94782466 Z" id="Fill-24" fill="#999999"></path>
                    <path d="M105.299105,1.3449863 L106.409362,1.3449863 L106.409362,0.228821918 L105.299105,0.228821918 L105.299105,1.3449863 Z M105.299105,7.5369863 L106.409362,7.5369863 L106.409362,2.21819178 L105.299105,2.21819178 L105.299105,7.5369863 Z" id="Fill-25" fill="#999999"></path>
                    <path d="M108.547596,5.18192877 C108.63622,6.27869589 109.702001,6.86686027 110.691585,6.86686027 C111.323728,6.86686027 112.189369,6.67486027 112.567412,5.9236274 L113.745036,5.9236274 C113.189744,7.20253151 111.890139,7.72001096 110.746852,7.72001096 C108.480228,7.72001096 107.369971,6.41086027 107.369971,4.87749041 C107.369971,3.34510685 108.480228,2.03529863 110.746852,2.03529863 C112.279955,2.03529863 113.89972,2.84669589 113.89972,5.04943562 L113.89972,5.18192877 L108.547596,5.18192877 Z M112.723404,4.39025753 C112.556293,3.42598356 111.735128,2.88812055 110.691585,2.88812055 C109.668644,2.88812055 108.746428,3.43617534 108.579971,4.39025753 L112.723404,4.39025753 Z" id="Fill-26" fill="#999999"></path>
                    <path d="M114.858825,2.21806027 L115.970063,2.21806027 L115.970063,3.02058082 L115.990992,3.02058082 C116.512928,2.27888219 117.435798,2.03526575 118.268082,2.03526575 C119.667757,2.03526575 120.711301,2.58299178 120.711301,3.91318356 L120.711301,7.53685479 L119.60039,7.53685479 L119.60039,4.11636164 C119.60039,3.33521096 119.067663,2.88743014 117.878919,2.88743014 C116.868733,2.88743014 115.970063,3.42595068 115.970063,4.47110137 L115.970063,7.53685479 L114.858825,7.53685479 L114.858825,2.21806027 Z" id="Fill-27" fill="#999999"></path>
                    <path d="M30.9455865,15.7224 C30.9455865,14.7472767 30.2679865,14.4540164 29.5459108,14.4540164 C28.5344162,14.4540164 27.6344378,14.8902904 27.6344378,15.8851397 L27.6344378,19.1024548 L26.5245081,19.1024548 L26.5245081,15.7224 C26.5245081,14.7472767 25.8482162,14.4540164 25.1261405,14.4540164 C24.1146459,14.4540164 23.2146676,14.9915507 23.2146676,16.0367014 L23.2146676,19.1024548 L22.1037568,19.1024548 L22.1037568,13.7836603 L23.2146676,13.7836603 L23.2146676,14.5851945 L23.2378865,14.5851945 C23.7594946,13.8441534 24.6817108,13.6008658 25.5143216,13.6008658 C26.2704081,13.6008658 27.0245324,13.8849205 27.490873,14.5851945 C28.0236,13.9756603 28.7345568,13.6008658 29.8457946,13.6008658 C30.4347703,13.6008658 32.0558432,13.8543452 32.0558432,15.4784548 L32.0558432,19.1024548 L30.9455865,19.1024548 L30.9455865,15.7224 Z" id="Fill-28" fill="#999999"></path>
                    <path d="M34.1891714,16.7472 C34.2777957,17.8439671 35.3435768,18.4321315 36.3315254,18.4321315 C36.9653038,18.4321315 37.8309443,18.2404603 38.2089876,17.4882411 L39.3862849,17.4882411 C38.83132,18.7678027 37.5313876,19.285611 36.3881011,19.285611 C34.1218038,19.285611 33.011547,17.9764603 33.011547,16.4430904 C33.011547,14.9107068 34.1218038,13.6008986 36.3881011,13.6008986 C37.9215308,13.6008986 39.5412957,14.4122959 39.5412957,16.6147068 L39.5412957,16.7472 L34.1891714,16.7472 Z M38.3649795,15.9558575 C38.1978686,14.9915836 37.3763768,14.4537205 36.3315254,14.4537205 C35.3112011,14.4537205 34.3883308,15.0017753 34.221547,15.9558575 L38.3649795,15.9558575 Z" id="Fill-29" fill="#999999"></path>
                    <path d="M40.5153784,12.9110137 L41.6262892,12.9110137 L41.6262892,11.7941918 L40.5153784,11.7941918 L40.5153784,12.9110137 Z M40.5153784,19.1023562 L41.6262892,19.1023562 L41.6262892,13.7835616 L40.5153784,13.7835616 L40.5153784,19.1023562 Z" id="Fill-30" fill="#999999"></path>
                    <polygon id="Fill-31" fill="#999999" points="42.8611432 19.1023562 43.9720541 19.1023562 43.9720541 11.7941918 42.8611432 11.7941918"></polygon>
                    <polygon id="Fill-32" fill="#999999" points="45.2065811 19.1023562 46.3174919 19.1023562 46.3174919 11.7941918 45.2065811 11.7941918"></polygon>
                    <path d="M48.4542865,16.7472 C48.5429108,17.8439671 49.609673,18.4321315 50.5979486,18.4321315 C51.2314,18.4321315 52.0973676,18.2404603 52.4750838,17.4882411 L53.6514,17.4882411 C53.0964351,18.7678027 51.7974838,19.285611 50.6541973,19.285611 C48.3879,19.285611 47.2779703,17.9764603 47.2779703,16.4430904 C47.2779703,14.9107068 48.3879,13.6008986 50.6541973,13.6008986 C52.1856649,13.6008986 53.8073919,14.4122959 53.8073919,16.6147068 L53.8073919,16.7472 L48.4542865,16.7472 Z M52.6307486,15.9558575 C52.4639649,14.9915836 51.6428,14.4537205 50.5979486,14.4537205 C49.5763162,14.4537205 48.654427,15.0017753 48.4876432,15.9558575 L52.6307486,15.9558575 Z" id="Fill-33" fill="#999999"></path>
                    <path d="M60.5961132,19.1025205 L59.4858565,19.1025205 L59.4858565,18.3009863 L59.4639457,18.3009863 C58.9420105,19.0420274 58.0191403,19.2856438 57.1865295,19.2856438 C55.7868538,19.2856438 54.7436376,18.737589 54.7436376,17.4073973 L54.7436376,13.783726 L55.8542214,13.783726 L55.8542214,17.2042192 C55.8542214,17.9853699 56.3872754,18.4334795 57.5756916,18.4334795 C58.5862051,18.4334795 59.4858565,17.8946301 59.4858565,16.8494795 L59.4858565,13.783726 L60.5961132,13.783726 L60.5961132,19.1025205 Z" id="Fill-34" fill="#999999"></path>
                    <path d="M61.8517008,13.7836603 L62.9626116,13.7836603 L62.9626116,14.756811 L62.9851765,14.756811 C63.5071116,13.9148384 64.2510981,13.6008658 64.9839657,13.6008658 C65.2622657,13.6008658 65.4061576,13.6110575 65.617417,13.6613589 L65.617417,14.756811 C65.3397711,14.6973041 65.1288386,14.6558795 64.8289549,14.6558795 C63.729163,14.6558795 62.9626116,15.2453589 62.9626116,16.4022904 L62.9626116,19.1024548 L61.8517008,19.1024548 L61.8517008,13.7836603 Z" id="Fill-35" fill="#999999"></path>
                    <path d="M75.2907784,13.7836603 L76.4016892,13.7836603 L76.4016892,18.6556603 C76.4016892,20.5638247 75.4013135,21.3364274 73.0143432,21.3364274 C71.7582324,21.3364274 70.3144081,21.1533041 70.0812378,19.6817425 L71.1924757,19.6817425 C71.3926162,20.3718247 72.0702162,20.5447562 73.1252054,20.5447562 C74.7014757,20.5447562 75.2907784,19.8142356 75.2907784,18.9397151 L75.2907784,18.1694137 L75.2675595,18.1694137 C74.6458811,18.9910027 73.7684676,19.1530849 73.0143432,19.1530849 C71.4590027,19.1530849 69.8261568,18.3824548 69.8261568,16.412811 C69.8261568,14.4336329 71.4590027,13.6613589 73.0035514,13.6613589 C73.9584703,13.6613589 74.8352297,13.9565918 75.2675595,14.564811 L75.2907784,14.564811 L75.2907784,13.7836603 Z M73.1467892,14.5145096 C71.7919162,14.5145096 71.0034541,15.3272219 71.0034541,16.422674 C71.0034541,17.5194411 71.7919162,18.3009205 73.1467892,18.3009205 C74.4905432,18.3009205 75.2907784,17.5194411 75.2907784,16.422674 C75.2907784,15.3272219 74.4905432,14.5145096 73.1467892,14.5145096 L73.1467892,14.5145096 Z" id="Fill-36" fill="#999999"></path>
                    <path d="M80.7109897,13.6008 C82.9776141,13.6008 84.0872168,14.9096219 84.0872168,16.4433205 C84.0872168,17.9766904 82.9776141,19.2855123 80.7109897,19.2855123 C78.4446924,19.2855123 77.3350897,17.9766904 77.3350897,16.4433205 C77.3350897,14.9096219 78.4446924,13.6008 80.7109897,13.6008 M80.7109897,14.4539507 C79.1013627,14.4539507 78.51206,15.478389 78.51206,16.4433205 C78.51206,17.4072658 79.1013627,18.4323616 80.7109897,18.4323616 C82.3219249,18.4323616 82.9102465,17.4072658 82.9102465,16.4433205 C82.9102465,15.478389 82.3219249,14.4539507 80.7109897,14.4539507" id="Fill-37" fill="#999999"></path>
                    <path d="M90.883983,19.1025205 L89.7730722,19.1025205 L89.7730722,18.3009863 L89.7521424,18.3009863 C89.2292262,19.0420274 88.307337,19.2856438 87.4734181,19.2856438 C86.0753776,19.2856438 85.0305262,18.737589 85.0305262,17.4073973 L85.0305262,13.783726 L86.14111,13.783726 L86.14111,17.2042192 C86.14111,17.9853699 86.6751451,18.4334795 87.8638884,18.4334795 C88.8734208,18.4334795 89.7730722,17.8946301 89.7730722,16.8494795 L89.7730722,13.783726 L90.883983,13.783726 L90.883983,19.1025205 Z M87.9633046,12.2099178 L87.0077316,13.1031781 L85.9305046,13.1031781 L87.3743289,11.6822466 L88.5526073,11.6822466 L89.9951235,13.1031781 L88.9182235,13.1031781 L87.9633046,12.2099178 Z" id="Fill-38" fill="#999999"></path>
                    <path d="M92.6727227,12.1492932 L93.7836335,12.1492932 L93.7836335,13.7835945 L95.4498362,13.7835945 L95.4498362,14.574937 L93.7836335,14.574937 L93.7836335,17.8540603 C93.7836335,18.2804712 94.116547,18.4333479 94.6826308,18.4333479 C94.9383659,18.4333479 95.1944281,18.4021151 95.4498362,18.3616767 L95.4498362,19.2148274 C95.071793,19.2753205 94.660393,19.2855123 94.2061524,19.2855123 C93.1158443,19.2855123 92.6727227,18.7982795 92.6727227,18.0269918 L92.6727227,14.574937 L91.4731876,14.574937 L91.4731876,13.7835945 L92.6727227,13.7835945 L92.6727227,12.1492932 Z" id="Fill-39" fill="#999999"></path>
                    <polygon id="Fill-40" fill="#999999" points="96.5187568 19.1026849 97.8961946 19.1026849 97.8961946 17.9247123 96.5187568 17.9247123"></polygon>
                    <path d="M14.2390838,36.1261808 L17.2202622,36.1261808 L19.1124405,34.4369753 L15.3653649,34.4369753 L14.2390838,36.1261808 Z M11.4551027,45.1373589 L20.8450297,45.1373589 L20.8450297,43.0953863 L14.943827,43.0953863 L14.943827,41.9693589 L20.4248,41.9693589 L20.4248,39.9277151 L14.943827,39.9277151 L14.943827,38.8016877 L20.8450297,38.8016877 L20.8450297,36.7600438 L11.4551027,36.7600438 L11.4551027,45.1373589 Z M28.0448568,45.1373589 L31.0391162,45.1373589 L31.0391162,36.4667836 L27.9464216,36.4667836 L27.9464216,39.4470575 L27.9202595,39.4470575 C27.3894946,38.8371945 26.498673,38.5429479 25.2366757,38.5429479 C23.2326541,38.5429479 21.3888757,39.5880986 21.3888757,41.9693589 C21.3888757,44.3509479 23.2326541,45.3960986 25.2366757,45.3960986 C26.6101892,45.3960986 27.4637297,45.0663452 28.0206568,44.4574685 L28.0448568,44.4574685 L28.0448568,45.1373589 Z M27.9464216,41.9693589 C27.9464216,42.8853041 27.4385486,43.4238247 26.2501324,43.4238247 C25.0515784,43.4238247 24.5561324,42.8149479 24.5561324,41.9693589 C24.5561324,41.1487562 25.1251595,40.5152219 26.2380324,40.5152219 C27.4385486,40.5152219 27.9464216,41.0668932 27.9464216,41.9693589 L27.9464216,41.9693589 Z M41.2070405,38.7191671 L38.115327,38.7191671 L38.115327,41.7464548 C38.115327,42.7084274 37.6450622,43.2837699 36.6806595,43.2837699 C35.9507351,43.2837699 35.4922432,42.931989 35.4922432,42.1222356 L35.4922432,38.7191671 L32.3995486,38.7191671 L32.3995486,42.8853041 C32.3995486,44.6682082 33.6864,45.3960986 35.3938081,45.3960986 C36.8778568,45.3960986 37.8671135,44.8329205 38.1898892,44.4216329 L38.2140892,44.4216329 L38.2140892,45.1373589 L41.2070405,45.1373589 L41.2070405,38.7191671 Z M52.2428946,41.3003178 C51.909,39.1656329 50.1767378,38.4610849 47.2688135,38.4610849 C44.4236784,38.4610849 42.1976054,39.2820164 42.1976054,41.9111671 C42.1976054,44.5745096 44.4236784,45.3960986 47.2688135,45.3960986 C49.3974324,45.3960986 51.9211,45.0910027 52.2428946,42.4273315 L49.0014027,42.4273315 C48.7911243,43.2594411 48.1478622,43.4948384 47.2822216,43.4948384 C46.0571784,43.4948384 45.4390973,42.8609753 45.4390973,41.8756603 C45.4390973,41.0195507 45.9217892,40.2929753 47.3060946,40.2929753 C47.7034324,40.2929753 48.1357622,40.3505096 48.4202757,40.4908932 C48.7662703,40.6552767 48.9641216,40.9021808 49.0014027,41.3003178 L52.2428946,41.3003178 Z" id="Fill-41" fill="#999999"></path>
                    <path d="M73.7351762,42.4427507 C73.7351762,43.4990795 72.5565708,44.0034082 71.4970032,44.0034082 C70.7118114,44.0034082 70.1761411,43.6868055 70.1761411,43.1229699 C70.1761411,42.5597918 70.5460086,42.3605589 71.2831276,42.3020384 L72.4963978,42.1971616 C72.9146654,42.1616548 73.3430708,42.1152986 73.7351762,41.9272438 L73.7351762,42.4427507 Z M70.3671249,40.6243397 C70.6643924,39.7560658 71.1281168,39.6850521 72.0209005,39.6850521 C73.2358059,39.6850521 73.6635573,39.9316274 73.6635573,40.4362849 C73.6635573,40.9419288 73.4496816,41.0468055 72.8060924,41.0934904 L70.5810005,41.2466959 C69.3072303,41.3275726 67.9379681,41.656011 67.9379681,43.1814904 C67.9379681,44.6504219 69.1041465,45.2244493 70.7713303,45.2244493 C71.712187,45.2244493 73.0458032,45.0242301 73.7593762,44.3209973 C73.7714762,44.5432438 73.8306681,44.7654904 73.902287,44.9890521 L75.9975492,44.9890521 C75.8546384,44.6721205 75.7591465,44.2739836 75.7591465,43.7226411 L75.7591465,40.6009973 C75.7591465,39.4276274 75.1155573,38.4649973 72.1163924,38.4649973 C70.4024438,38.4649973 68.5923492,38.6885589 68.3418465,40.6243397 L70.3671249,40.6243397 Z M76.926633,44.9890521 L79.0209141,44.9890521 L79.0209141,36.4710247 L76.926633,36.4710247 L76.926633,44.9890521 Z M88.0576519,41.0237918 C87.6645654,38.9463123 85.7714059,38.4649973 84.1526222,38.4649973 C81.6279735,38.4649973 79.9388789,39.4749699 79.9388789,41.8443945 C79.9388789,44.2144767 81.5684546,45.2244493 83.9740654,45.2244493 C86.0572276,45.2244493 87.6756843,44.7191342 88.0576519,42.4900932 L85.8897897,42.4900932 C85.7825249,43.2768329 85.0807249,43.7686685 84.1526222,43.7686685 C82.8549789,43.7686685 82.1047789,43.0766137 82.1047789,41.8443945 C82.1047789,40.6131616 82.8549789,39.9204493 84.1526222,39.9204493 C84.997987,39.9204493 85.6405951,40.1903671 85.8897897,41.0237918 L88.0576519,41.0237918 Z M88.5442681,41.8443945 C88.5442681,44.2144767 90.2356519,45.2244493 92.7593195,45.2244493 C95.282987,45.2244493 96.9743708,44.2144767 96.9743708,41.8443945 C96.9743708,39.4749699 95.282987,38.4649973 92.7593195,38.4649973 C90.2356519,38.4649973 88.5442681,39.4749699 88.5442681,41.8443945 L88.5442681,41.8443945 Z M90.7121303,41.8443945 C90.7121303,40.6131616 91.4613492,39.9204493 92.7593195,39.9204493 C94.0572897,39.9204493 94.8065086,40.6131616 94.8065086,41.8443945 C94.8065086,43.0766137 94.0572897,43.7686685 92.7593195,43.7686685 C91.4613492,43.7686685 90.7121303,43.0766137 90.7121303,41.8443945 L90.7121303,41.8443945 Z M97.5921249,41.8443945 C97.5921249,44.2144767 99.2838357,45.2244493 101.806195,45.2244493 C104.331171,45.2244493 106.021246,44.2144767 106.021246,41.8443945 C106.021246,39.4749699 104.331171,38.4649973 101.806195,38.4649973 C99.2838357,38.4649973 97.5921249,39.4749699 97.5921249,41.8443945 L97.5921249,41.8443945 Z M99.7590059,41.8443945 C99.7590059,40.6131616 100.509206,39.9204493 101.806195,39.9204493 C103.105146,39.9204493 103.854365,40.6131616 103.854365,41.8443945 C103.854365,43.0766137 103.105146,43.7686685 101.806195,43.7686685 C100.509206,43.7686685 99.7590059,43.0766137 99.7590059,41.8443945 L99.7590059,41.8443945 Z M106.937903,44.9890521 L109.033165,44.9890521 L109.033165,36.4710247 L106.937903,36.4710247 L106.937903,44.9890521 Z" id="Fill-42" fill="#999999"></path>
                    <path d="M58.7179643,44.634937 C58.4998373,44.634937 58.2928292,44.5188822 58.1790238,44.322937 L49.6851508,29.5310466 C49.5442022,29.2857863 49.5844265,28.9767452 49.7835859,28.7768548 C49.9042589,28.6575123 50.0618859,28.5937315 50.2237643,28.5937315 C50.3307022,28.5937315 50.4369859,28.6220055 50.5337859,28.6778959 L59.02864,33.6074301 C59.221913,33.7195397 59.3393157,33.926663 59.3393157,34.1489096 L59.3393157,44.0102795 C59.3393157,44.2923616 59.1502941,44.5399233 58.8788616,44.6138959 C58.8245751,44.6280329 58.7702886,44.634937 58.7179643,44.634937" id="Fill-43" fill="#999999"></path>
                    <path d="M61.6466549,44.634937 C61.5946576,44.634937 61.5403711,44.6280329 61.4860846,44.6138959 C61.2146522,44.5399233 61.0256305,44.2923616 61.0256305,44.0102795 L61.0256305,34.1489096 C61.0256305,33.926663 61.1430332,33.7195397 61.3359792,33.6074301 L69.8311603,28.6778959 C69.9273062,28.6220055 70.0352251,28.5937315 70.1418359,28.5937315 C70.3027332,28.5937315 70.4613414,28.6575123 70.5800522,28.7758685 C70.7801927,28.9767452 70.8207441,29.2857863 70.6807765,29.5310466 L62.1855954,44.322937 C62.072117,44.5188822 61.8651089,44.634937 61.6466549,44.634937" id="Fill-44" fill="#999999"></path>
                    <path d="M60.1828819,32.2166137 C60.07529,32.2166137 59.9686792,32.1889973 59.8722062,32.1324493 L51.3770251,27.2019288 C51.1340441,27.0612164 51.0140251,26.7719014 51.0876062,26.4993534 C51.1602062,26.2254904 51.4064576,26.0364493 51.6877008,26.0364493 L68.6767549,26.0364493 C68.9593062,26.0364493 69.2045765,26.2254904 69.2781576,26.4993534 C69.3504305,26.7719014 69.2317197,27.0612164 68.9874305,27.2019288 L60.4935576,32.1324493 C60.3970846,32.1889973 60.2894927,32.2166137 60.1828819,32.2166137" id="Fill-45" fill="#999999"></path>
                    <polygon id="Fill-46" fill="#999999" points="11.4551027 48 109.034408 48 109.034408 47.5328219 11.4551027 47.5328219"></polygon>
                    <polygon id="Fill-1" fill="#999999" points="0 1 0 8 6 8 6 7.09789068 1.1780807 7.09789068 1.1780807 1"></polygon>
                </g>
            </g>
        </g>
    </g>
</svg>
